<svg xmlns="http://www.w3.org/2000/svg" width="1200" height="630" viewBox="0 0 1200 630" role="img" aria-label="QuoteFleet social preview">
  <defs>
    <linearGradient id="bg" x1="0" y1="0" x2="1" y2="1"><stop offset="0" stop-color="#0b0d10"/><stop offset="1" stop-color="#121826"/></linearGradient>
    <linearGradient id="accent" x1="0" y1="0" x2="1" y2="1"><stop offset="0" stop-color="#9bf7ff"/><stop offset="1" stop-color="#5f79ff"/></linearGradient>
  </defs>
  <rect width="1200" height="630" fill="url(#bg)"/>
  <circle cx="935" cy="130" r="220" fill="#9bf7ff" opacity="0.12"/>
  <circle cx="210" cy="520" r="260" fill="#5f79ff" opacity="0.12"/>
  <rect x="70" y="70" width="1060" height="490" rx="42" fill="#151a21" stroke="#273241"/>
  <g transform="translate(110 110)">
    <rect width="70" height="70" rx="20" fill="url(#accent)"/>
    <path d="M15 50h7a10 10 0 0 0 10-10V20H15z" fill="none" stroke="#061014" stroke-width="6" stroke-linejoin="round"/>
    <path d="M48 20h18l4 13v17h-9" fill="none" stroke="#061014" stroke-width="6" stroke-linejoin="round"/>
    <circle cx="29" cy="53" r="6" fill="#061014"/><circle cx="59" cy="53" r="6" fill="#061014"/>
  </g>
  <text x="205" y="150" fill="#ffffff" font-family="Inter, Arial, sans-serif" font-size="42" font-weight="800">QuoteFleet</text>
  <text x="110" y="265" fill="#ffffff" font-family="Inter, Arial, sans-serif" font-size="68" font-weight="800">Instant quote desk</text>
  <text x="110" y="342" fill="#ffffff" font-family="Inter, Arial, sans-serif" font-size="68" font-weight="800">for trucking carriers</text>
  <text x="112" y="410" fill="#b8c2d1" font-family="Inter, Arial, sans-serif" font-size="28">Drayage · FTL · LTL · terminals · accessorials</text>
  <rect x="112" y="456" width="210" height="46" rx="23" fill="#9bf7ff"/>
  <text x="142" y="487" fill="#061014" font-family="Inter, Arial, sans-serif" font-size="22" font-weight="800">Start free</text>
  <rect x="360" y="456" width="330" height="46" rx="23" fill="none" stroke="#3b4657"/>
  <text x="390" y="487" fill="#e5edf7" font-family="Inter, Arial, sans-serif" font-size="22" font-weight="700">Private rates by default</text>
</svg>
